<?xml version="1.0" encoding="UTF-8" standalone="no"?>
<svg
   viewBox="0 0 576.04999 448"
   version="1.1"
   id="svg4"
   sodipodi:docname="eyeDark.svg"
   width="576.04999"
   height="448"
   inkscape:version="1.2.1 (9c6d41e410, 2022-07-14)"
   xmlns:inkscape="http://www.inkscape.org/namespaces/inkscape"
   xmlns:sodipodi="http://sodipodi.sourceforge.net/DTD/sodipodi-0.dtd"
   xmlns="http://www.w3.org/2000/svg"
   xmlns:svg="http://www.w3.org/2000/svg">
  <defs
     id="defs8" />
  <sodipodi:namedview
     id="namedview6"
     pagecolor="#ffffff"
     bordercolor="#000000"
     borderopacity="0.25"
     inkscape:showpageshadow="2"
     inkscape:pageopacity="0.0"
     inkscape:pagecheckerboard="0"
     inkscape:deskcolor="#d1d1d1"
     showgrid="false"
     inkscape:zoom="1.0253906"
     inkscape:cx="288.18286"
     inkscape:cy="224.30476"
     inkscape:window-width="1366"
     inkscape:window-height="705"
     inkscape:window-x="1358"
     inkscape:window-y="-8"
     inkscape:window-maximized="1"
     inkscape:current-layer="svg4" />
  <!--!Font Awesome Free 6.5.2 by @fontawesome - https://fontawesome.com License - https://fontawesome.com/license/free Copyright 2024 Fonticons, Inc.-->
  <path
     d="m 287.975,0 c -80.8,0 -145.5,36.8 -192.6,80.6 -46.8,43.4 -78.1,95.4 -92.9,131.1 -3.3,7.9 -3.3,16.7 0,24.6 14.8,35.7 46.1,87.7 92.9,131.1 47.1,43.8 111.8,80.6 192.6,80.6 80.8,0 145.5,-36.8 192.6,-80.6 46.8,-43.5 78.1,-95.4 93,-131.1 3.3,-7.9 3.3,-16.7 0,-24.6 -14.9,-35.7 -46.2,-87.7 -93,-131.1 C 433.475,36.8 368.775,0 287.975,0 Z m -144,224 a 144,144 0 1 1 288,0 144,144 0 1 1 -288,0 z m 144,-64 c 0,35.3 -28.7,64 -64,64 -7.1,0 -13.9,-1.2 -20.3,-3.3 -5.5,-1.8 -11.9,1.6 -11.7,7.4 0.3,6.9 1.3,13.8 3.2,20.7 13.7,51.2 66.4,81.6 117.6,67.9 51.2,-13.7 81.6,-66.4 67.9,-117.6 -11.1,-41.5 -47.8,-69.4 -88.6,-71.1 -5.8,-0.2 -9.2,6.1 -7.4,11.7 2.1,6.4 3.3,13.2 3.3,20.3 z"
     id="path2"
     style="fill:#334155;fill-opacity:1" />
</svg>
