<?xml version="1.0" encoding="UTF-8" standalone="no"?>
<!-- Created with Inkscape (http://www.inkscape.org/) -->

<svg
   width="100mm"
   height="50.000294mm"
   viewBox="0 0 99.999999 50.000294"
   version="1.1"
   id="svg5"
   xml:space="preserve"
   inkscape:version="1.2.1 (9c6d41e410, 2022-07-14)"
   sodipodi:docname="themeButton.svg"
   xmlns:inkscape="http://www.inkscape.org/namespaces/inkscape"
   xmlns:sodipodi="http://sodipodi.sourceforge.net/DTD/sodipodi-0.dtd"
   xmlns="http://www.w3.org/2000/svg"
   xmlns:svg="http://www.w3.org/2000/svg"><sodipodi:namedview
     id="namedview7"
     pagecolor="#ffffff"
     bordercolor="#000000"
     borderopacity="0.25"
     inkscape:showpageshadow="2"
     inkscape:pageopacity="0.0"
     inkscape:pagecheckerboard="0"
     inkscape:deskcolor="#d1d1d1"
     inkscape:document-units="mm"
     showgrid="false"
     inkscape:zoom="1.3228492"
     inkscape:cx="118.30525"
     inkscape:cy="122.46294"
     inkscape:window-width="1366"
     inkscape:window-height="705"
     inkscape:window-x="1358"
     inkscape:window-y="-8"
     inkscape:window-maximized="1"
     inkscape:current-layer="layer1" /><defs
     id="defs2" /><g
     inkscape:label="Layer 1"
     inkscape:groupmode="layer"
     id="layer1"
     transform="translate(-32.388302,-115.548)"><path
       d="m 110.896,115.548 c -13.783488,0 -24.944198,11.1942 -24.944198,25 0,13.8058 11.16071,25 24.944198,25 6.76339,0 12.89062,-2.70089 17.38839,-7.07589 0.55803,-0.54688 0.70312,-1.39509 0.34598,-2.08705 -0.35714,-0.69197 -1.12723,-1.08259 -1.89732,-0.94867 -1.09375,0.18974 -2.20982,0.29018 -3.35937,0.29018 -10.81474,0 -19.58706,-8.79464 -19.58706,-19.64285 0,-7.34375 4.01786,-13.73884 9.96652,-17.10938 0.6808,-0.39062 1.02678,-1.17187 0.85938,-1.9308 -0.16742,-0.75893 -0.81474,-1.32813 -1.59599,-1.39509 -0.70312,-0.0558 -1.40625,-0.0893 -2.12053,-0.0893 z"
       id="path1049"
       style="stroke-width:0.111607" /><path
       style="fill:#000000;stroke-width:0.392159"
       d="m 56.010349,164.76676 c -0.682415,-0.67708 -0.787401,-1.30209 -0.787401,-4.6875 0,-3.38543 0.104979,-4.01042 0.787401,-4.6875 0.433071,-0.4297 1.05315,-0.78126 1.377953,-0.78126 0.324803,0 0.944882,0.35156 1.377953,0.78126 0.682415,0.67708 0.787401,1.30207 0.787401,4.6875 0,3.38541 -0.104979,4.01042 -0.787401,4.6875 -0.433071,0.42968 -1.05315,0.78124 -1.377953,0.78124 -0.324803,0 -0.944882,-0.35156 -1.377953,-0.78124 z m -16.141733,-6.64063 c -1.301428,-1.29126 -0.958059,-2.24432 1.847344,-5.12751 2.916336,-2.99721 4.069234,-3.54028 5.255135,-2.47544 1.478064,1.32717 1.00691,2.55697 -2.139257,5.58381 -1.600938,1.54022 -3.195427,2.80039 -3.543308,2.80039 -0.34788,0 -0.986842,-0.35157 -1.419914,-0.78125 z m 30.076151,-2.01914 c -2.190292,-2.10722 -2.910795,-3.05915 -2.910795,-3.84572 0,-1.37803 1.259633,-2.50145 2.4675,-2.20065 1.283417,0.31959 6.193916,5.44503 6.193916,6.46503 0,0.96913 -1.309154,2.38173 -2.207314,2.38173 -0.347883,0 -1.94237,-1.26017 -3.543307,-2.80039 z m -14.91867,-4.96686 c -8.003787,-2.08527 -11.120006,-11.47313 -5.83999,-17.59346 4.30591,-4.99119 12.09848,-4.99119 16.404392,0 4.545933,5.26941 2.917106,13.45539 -3.299214,16.58082 -2.063271,1.03738 -5.390322,1.50111 -7.265188,1.01264 z M 33.175704,142.1105 c -0.433071,-0.42969 -0.787402,-1.13281 -0.787402,-1.5625 0,-0.42969 0.354331,-1.13281 0.787402,-1.5625 0.676888,-0.6716 1.312335,-0.78125 4.527559,-0.78125 3.215223,0 3.85067,0.10969 4.527559,0.78125 0.43307,0.42969 0.787401,1.13281 0.787401,1.5625 0,0.42969 -0.354331,1.13281 -0.787401,1.5625 -0.676889,0.6716 -1.312336,0.78125 -4.527559,0.78125 -3.215224,0 -3.850671,-0.10969 -4.527559,-0.78125 z m 39.370078,0 c -0.43307,-0.42969 -0.787401,-1.13281 -0.787401,-1.5625 0,-0.42969 0.354331,-1.13281 0.787401,-1.5625 0.676891,-0.6716 1.312335,-0.78125 4.527559,-0.78125 3.215225,0 3.850669,0.10969 4.527559,0.78125 0.433071,0.42969 0.787402,1.13281 0.787402,1.5625 0,0.42969 -0.354331,1.13281 -0.787402,1.5625 -0.67689,0.6716 -1.312334,0.78125 -4.527559,0.78125 -3.215224,0 -3.850668,-0.10969 -4.527559,-0.78125 z m -30.58166,-13.79788 c -1.816074,-1.80189 -2.882906,-3.17514 -2.882906,-3.71094 0,-0.99527 1.296909,-2.41306 2.207314,-2.41306 0.347881,0 1.94237,1.26017 3.543308,2.80039 3.11748,2.99923 3.615566,4.2582 2.190818,5.53751 -1.234786,1.10873 -2.084579,0.73682 -5.058534,-2.2139 z m 25.721421,2.14603 c -1.278973,-1.40222 -0.824241,-2.50312 2.259224,-5.46964 1.600937,-1.54022 3.195424,-2.80039 3.543307,-2.80039 0.910405,0 2.207314,1.41779 2.207314,2.41306 0,1.1042 -5.459405,6.57132 -6.562042,6.57132 -0.43793,0 -1.089442,-0.32145 -1.447803,-0.71435 z m -11.675194,-4.75441 c -0.682415,-0.67708 -0.787401,-1.30207 -0.787401,-4.6875 0,-3.38541 0.104979,-4.01042 0.787401,-4.6875 0.433071,-0.42968 1.05315,-0.78124 1.377953,-0.78124 0.324803,0 0.944882,0.35156 1.377953,0.78124 0.682415,0.67708 0.787401,1.30209 0.787401,4.6875 0,3.38543 -0.104979,4.01042 -0.787401,4.6875 -0.433071,0.42969 -1.05315,0.78126 -1.377953,0.78126 -0.324803,0 -0.944882,-0.35157 -1.377953,-0.78126 z"
       id="path178" /></g></svg>
